<?xml version="1.0" encoding="UTF-8" standalone="no"?>
<!-- Created with Inkscape (http://www.inkscape.org/) -->

<svg
   version="1.1"
   id="svg2"
   xml:space="preserve"
   width="2560"
   height="2560"
   viewBox="0 0 2560 2560"
   xmlns="http://www.w3.org/2000/svg"
   xmlns:svg="http://www.w3.org/2000/svg"><defs
     id="defs6"><clipPath
       clipPathUnits="userSpaceOnUse"
       id="clipPath18"><path
         d="M 0,1920 H 1920 V 0 H 0 Z"
         id="path16" /></clipPath><clipPath
       clipPathUnits="userSpaceOnUse"
       id="clipPath4152"><path
         d="m 0,283.465 283.465,0 L 283.465,0 0,0 0,283.465 Z"
         id="path4154" /></clipPath><clipPath
       clipPathUnits="userSpaceOnUse"
       id="clipPath4152-1"><path
         d="m 0,283.465 283.465,0 L 283.465,0 0,0 0,283.465 Z"
         id="path4154-6" /></clipPath><clipPath
       clipPathUnits="userSpaceOnUse"
       id="clipPath4152-8"><path
         d="m 0,283.465 283.465,0 L 283.465,0 0,0 0,283.465 Z"
         id="path4154-60" /></clipPath></defs><g
     id="g8"
     transform="matrix(1.3333333,0,0,-1.3333333,0,2560)"><path
       d="M 0,0 H 1920 V 1920 H 0 Z"
       style="fill:#666666;fill-opacity:1;fill-rule:nonzero;stroke:none"
       id="path10" /><g
       id="g12"><g
         id="g14"
         clip-path="url(#clipPath18)"><g
           id="g20"
           transform="translate(981.9863,544.1068)"><path
             d="m 0,0 c 1.621,-3.74 3.822,-7 6.611,-9.771 2.781,-2.781 6.041,-4.946 9.782,-6.467 3.731,-1.539 8.087,-1.956 8.087,-1.956 2.101,-0.2 5.57,-0.363 7.708,-0.363 h 56.721 c 2.128,0 5.606,0.181 7.716,0.39 0,0 4.401,0.435 8.232,2.064 3.831,1.622 7.082,3.823 9.773,6.603 2.689,2.789 4.836,6.05 6.475,9.79 1.613,3.723 2.075,8.359 2.075,8.359 0.198,2.111 0.371,5.607 0.371,7.726 v 138.892 c 0,2.119 -1.757,3.876 -3.886,3.876 H 90.041 c -2.128,0 -3.876,-1.757 -3.876,-3.876 V 31.028 c 0,-2.119 -0.299,-5.57 -0.688,-7.662 0,0 -0.127,-0.761 -1.748,-2.39 -1.63,-1.622 -2.663,-1.793 -2.663,-1.793 -2.101,-0.354 -5.543,-0.644 -7.68,-0.644 H 47.711 c -2.129,0 -5.607,0.19 -7.717,0.417 0,0 -0.996,0.108 -2.617,1.748 -1.63,1.611 -1.812,2.635 -1.812,2.635 -0.343,2.119 -0.652,5.57 -0.652,7.689 v 124.239 c 0,2.119 -1.721,3.876 -3.849,3.876 H 1.422 c -2.119,0 -3.867,-1.757 -3.867,-3.876 V 16.375 c 0,-2.119 0.154,-5.615 0.353,-7.726 0,0 0.453,-4.908 2.092,-8.649"
             style="fill:#ffffff;fill-opacity:1;fill-rule:nonzero;stroke:none"
             id="path22" /></g><g
           id="g24"
           transform="translate(920.917,703.2426)"><path
             d="m 0,0 c -2.128,0 -4.863,-1.431 -6.095,-3.161 l -45.6,-64.692 c -1.232,-1.738 -3.677,-3.16 -5.443,-3.16 -1.757,0 -4.229,1.422 -5.443,3.16 l -45.591,64.692 c -1.232,1.73 -3.976,3.161 -6.104,3.161 h -17.85 c -2.129,0 -3.868,-1.739 -3.868,-3.867 v -169.939 c 0,-2.128 1.739,-3.876 3.868,-3.876 h 28.69 c 2.129,0 3.868,1.748 3.868,3.876 v 91.554 c 0,2.138 1.014,2.445 2.246,0.725 l 29.878,-42.105 c 1.24,-1.738 3.975,-3.151 6.122,-3.151 h 8.377 c 2.129,0 4.882,1.413 6.113,3.151 l 29.878,42.105 c 1.25,1.72 2.246,1.413 2.246,-0.725 v -91.554 c 0,-2.128 1.739,-3.876 3.867,-3.876 h 28.692 c 2.128,0 3.858,1.748 3.858,3.876 V -3.867 C 21.709,-1.739 19.979,0 17.851,0 Z"
             style="fill:#ffffff;fill-opacity:1;fill-rule:nonzero;stroke:none"
             id="path26" /></g><g
           id="g28"
           transform="translate(482.936,657.5258)"><path
             d="m 0,0 c 0,2.49 0.888,4.556 2.708,6.177 1.812,1.638 2.645,1.775 2.645,1.775 2.083,0.371 5.551,0.679 7.67,0.679 h 31.934 c 2.663,0 4.818,-0.869 6.439,-2.59 1.612,-1.73 1.712,-2.237 1.712,-2.237 0.39,-2.092 0.715,-5.543 0.715,-7.671 v -82.388 c 0.2,-2.301 -0.624,-4.311 -2.427,-6.041 -1.82,-1.721 -2.635,-1.865 -2.635,-1.865 -2.092,-0.408 -5.543,-0.716 -7.68,-0.716 H 9.147 c -2.671,0 -4.863,0.86 -6.584,2.581 -1.711,1.73 -1.811,2.246 -1.811,2.246 C 0.335,-87.958 0,-84.517 0,-82.379 Z m -28.601,-122.907 c 2.772,-2.781 6.023,-4.99 9.764,-6.62 3.74,-1.621 8.087,-2.056 8.087,-2.056 2.11,-0.218 5.588,-0.381 7.716,-0.381 h 64.537 c 4.212,0 8.188,0.816 11.919,2.437 3.749,1.63 7.01,3.839 9.781,6.62 2.79,2.771 4.936,6.086 6.476,9.908 1.521,3.84 1.938,8.232 1.938,8.232 0.199,2.12 0.362,5.597 0.362,7.725 V 10.786 c 0,2.138 -0.163,5.607 -0.362,7.726 0,0 -0.417,4.338 -1.938,8.078 -1.54,3.74 -3.686,6.992 -6.476,9.781 -2.771,2.772 -6.032,5.026 -9.781,6.747 -3.731,1.731 -8.078,2.193 -8.078,2.193 -2.12,0.216 -5.597,0.407 -7.726,0.407 H -6.901 c -4.229,0 -8.196,-0.824 -11.936,-2.464 -3.741,-1.621 -6.992,-3.821 -9.764,-6.602 -2.789,-2.771 -4.954,-6.086 -6.484,-9.908 -1.531,-3.84 -1.929,-8.232 -1.929,-8.232 -0.209,-2.119 -0.362,-5.588 -0.362,-7.726 v -111.704 c 0,-4.41 0.76,-8.485 2.291,-12.217 1.53,-3.741 3.695,-7.001 6.484,-9.772"
             style="fill:#ffffff;fill-opacity:1;fill-rule:nonzero;stroke:none"
             id="path30" /></g><g
           id="g32"
           transform="translate(650.1167,660.847)"><path
             d="m 0,0 c 0,2.128 1.757,3.867 3.876,3.867 h 37.531 c 2.137,0 4.89,-1.413 6.122,-3.152 l 15.785,-22.234 c 1.241,-1.739 1.223,-4.574 -0.018,-6.285 L 49.023,-47.62 c -1.25,-1.73 -4.003,-3.143 -6.14,-3.143 H 3.876 c -2.119,0 -3.876,1.74 -3.876,3.876 z m -33.6,-135.288 h 29.742 c 2.119,0 3.858,1.739 3.858,3.867 v 38.265 c 0,2.128 1.757,3.876 3.876,3.876 h 28.899 c 2.12,0 4.71,-1.522 5.751,-3.387 l 21.727,-39.243 c 1.024,-1.865 3.605,-3.378 5.751,-3.378 h 35.828 c 2.128,0 3.016,1.513 1.975,3.378 l -28.71,51.767 c -1.041,1.858 -0.869,4.791 0.381,6.512 l 31.843,44.251 c 1.249,1.73 1.313,4.592 0.144,6.367 L 66.194,39.17 c -1.177,1.774 -3.894,3.224 -6.013,3.224 H -33.6 c -2.138,0 -3.885,-1.748 -3.885,-3.876 v -169.939 c 0,-2.128 1.747,-3.867 3.885,-3.867"
             style="fill:#ffffff;fill-opacity:1;fill-rule:nonzero;stroke:none"
             id="path34" /></g><g
           id="g36"
           transform="translate(1241.9707,562.6478)"><path
             d="m 0,0 h -56.93 c -2.128,0 -3.876,1.739 -3.876,3.867 v 132.861 c 0,2.119 -1.739,3.867 -3.867,3.867 h -29.471 c -2.119,0 -3.857,-1.748 -3.857,-3.867 V -33.22 c 0,-2.128 1.738,-3.858 3.857,-3.858 h 80.868 c 2.128,0 4.446,1.621 5.179,3.632 L 2.563,-3.641 C 3.288,-1.64 2.128,0 0,0"
             style="fill:#ffffff;fill-opacity:1;fill-rule:nonzero;stroke:none"
             id="path38" /></g><g
           id="g40"
           transform="translate(1317.8467,580.5433)"><path
             d="m 0,0 23.918,67.734 c 0.725,2.002 1.866,1.994 2.536,-0.036 L 49.901,0 Z M 106.405,-51.323 47.456,119.031 c -0.697,2.011 -3.007,3.668 -5.135,3.668 H 8.64 c -2.138,0 -4.465,-1.639 -5.181,-3.64 L -57.546,-51.332 c -0.716,-2.021 0.435,-3.65 2.563,-3.65 h 31.589 c 2.138,0 4.465,1.629 5.19,3.64 l 6.05,16.774 h 73.449 l 5.579,-16.738 c 0.67,-2.028 2.961,-3.676 5.09,-3.676 h 31.843 c 2.119,0 3.296,1.648 2.598,3.659"
             style="fill:#ffffff;fill-opacity:1;fill-rule:nonzero;stroke:none"
             id="path42" /></g><g
           id="g44"
           transform="translate(413.0835,703.2426)"><path
             d="m 0,0 h -102.666 c -2.128,0 -3.867,-1.739 -3.867,-3.867 v -169.939 c 0,-2.128 1.739,-3.876 3.867,-3.876 h 29.742 c 2.137,0 3.867,1.748 3.867,3.876 v 62.935 c 0,2.138 1.739,3.867 3.886,3.867 h 42.983 c 2.119,0 4.446,1.649 5.162,3.65 l 9.735,27.215 c 0.725,2.001 -0.425,3.641 -2.563,3.641 h -55.317 c -2.147,0 -3.886,1.729 -3.886,3.867 v 27.958 c 0,2.128 1.739,3.867 3.886,3.867 H 0 c 2.119,0 3.876,1.747 3.876,3.876 V -3.867 C 3.876,-1.739 2.119,0 0,0"
             style="fill:#ffffff;fill-opacity:1;fill-rule:nonzero;stroke:none"
             id="path46" /></g><g
           id="g48"
           transform="translate(1609.5947,703.2426)"><path
             d="m 0,0 h -108.706 c -2.129,0 -3.85,-1.739 -3.85,-3.867 v -169.939 c 0,-2.128 1.721,-3.876 3.85,-3.876 H 0 c 2.128,0 3.858,1.748 3.858,3.876 v 29.344 c 0,2.119 -1.73,3.858 -3.858,3.858 h -71.32 c -2.129,0 -3.877,1.757 -3.877,3.876 v 30.503 c 0,2.128 1.748,3.876 3.877,3.876 h 50.825 c 2.128,0 4.456,1.64 5.181,3.641 l 9.735,27.215 c 0.716,2.002 -0.435,3.64 -2.554,3.64 H -71.32 c -2.129,0 -3.877,1.74 -3.877,3.868 v 23.031 c 0,2.119 1.748,3.858 3.877,3.858 H 0 c 2.128,0 3.858,1.739 3.858,3.876 V -3.867 C 3.858,-1.739 2.128,0 0,0"
             style="fill:#ffffff;fill-opacity:1;fill-rule:nonzero;stroke:none"
             id="path50" /></g><g
           id="g52"
           transform="translate(647.2554,999.3265)"><path
             d="m 0,0 c 33.066,-71.239 104.559,-118.523 195.487,-118.523 h 494.119 c 90.965,0 179.131,47.284 237.292,118.523 z"
             style="fill:#ffffff;fill-opacity:1;fill-rule:nonzero;stroke:none"
             id="path54" /></g><g
           id="g56"
           transform="translate(1327.2129,1170.9926)"><path
             d="m 0,0 c 12.651,19.952 21.591,42.068 25.766,65.416 2.39,13.648 3.015,26.871 1.983,39.532 -5.533,68.16 -58.569,118.515 -132.181,118.515 h -289.494 c -90.892,0 -179.058,-47.285 -237.265,-118.515 h 505.856 c 21.8,0 36.354,-17.706 32.531,-39.532 -3.567,-20.459 -22.08,-37.277 -42.375,-39.315 -1.358,-0.118 -643.508,-0.208 -643.508,-0.208 -96.96,0 -183.025,-46.542 -237.111,-118.506 h 855.605 C -96.227,-92.613 -34.524,-54.639 0,0"
             style="fill:#ffffff;fill-opacity:1;fill-rule:nonzero;stroke:none"
             id="path58" /></g></g></g></g></svg>
